<svg xmlns="http://www.w3.org/2000/svg" height="1200" width="1600" version="1.1"
	xmlns:xlink="http://www.w3.org/1999/xlink"
	xmlns:svgjs="http://svgjs.com/svgjs">
	<rect fill="#f3ebe9" width="1600" height="1200"></rect>
	<g>
		<path d="M570.1 672.6V763.5C570.1 776.5 559.6 787 546.6 787H531.3C518.3 787 507.8 797.5 507.8 810.5V846.1C507.8 859.1 518.3 869.6 531.3 869.6H900.7C913.7 869.6 924.2 880.1 924.2 893.1V922.8C924.2 935.8 934.7 946.3 947.7 946.3H966.5C979.5 946.3 990 935.8 990 922.8V857.5C990 844.5 1000.5 834 1013.5 834H1316.5C1329.5 834 1340 823.5 1340 810.5V703.9" stroke="#231f20" stroke-width="4" stroke-linecap="round" stroke-linejoin="round" opacity="1" fill="none"></path>
	</g>
	<g>
		<path d="M384.31 296.36H354.39C351.44 296.36 349.09 294.01 349.09 291.06 349.09 290.47 349.2 289.76 349.44 289.18L363.81 250.3C364.87 247.59 363.46 244.53 360.63 243.47 358.63 242.76 356.51 243.24 354.98 244.65L291.84 307.79C289.72 309.91 289.72 313.21 291.84 315.33 292.78 316.27 294.19 316.86 295.61 316.86H325.53C328.47 316.86 330.83 319.21 330.83 322.16 330.83 322.75 330.71 323.45 330.47 324.04L316.1 362.92C315.04 365.62 316.46 368.69 319.28 369.75 321.29 370.45 323.41 369.98 324.94 368.57L388.08 305.43C390.2 303.31 390.2 300.01 388.08 297.89 387.02 296.95 385.72 296.36 384.31 296.36Z" fill="#9867e2" opacity="1" stroke-width="4" stroke="none"></path>
	</g>
	<g>
		<path d="M707.21 418.08L645.1 398.65V367.99H624.06L515.35 464.97 624.06 574.38H645.1V543.72L707.21 524.29V418.08Z" fill="#ff6eab" opacity="1" stroke-width="4" stroke="none"></path>
		<path d="M652.21 400.85L645.1 398.65V543.72L669.44 536.11 652.21 400.85Z" fill="#000000" opacity="0.3" stroke-width="4" stroke="none"></path>
		<path d="M581.98 553.34H474.77V626.48H581.98V553.34Z" fill="#f3ebe9" opacity="1" stroke-width="4" stroke="none"></path>
		<path d="M552.92 553.34H445.72V626.48H552.92V553.34Z" fill="#ff6eab" opacity="1" stroke-width="4" stroke="none"></path>
		<path d="M604.02 612.45H709.22V681.58H604.02L538.69 650.52 604.02 612.45Z" fill="#ff6eab" opacity="1" stroke-width="4" stroke="none"></path>
		<path d="M604.02 612.45H354.55V681.58H604.02V612.45Z" fill="#9867e2" opacity="1" stroke-width="4" stroke="none"></path>
		<path d="M624.06 367.99H374.58V574.38H624.06V367.99Z" fill="#9867e2" opacity="1" stroke-width="4" stroke="none"></path>
		<path d="M594 398.05H404.64V544.32H594V398.05Z" fill="#f3ebe9" opacity="1" stroke-width="4" stroke="none"></path>
		<path d="M588.99 627.48H502.83V645.51H588.99V627.48Z" fill="#000000" opacity="1" stroke-width="4" stroke="none"></path>
		<path d="M645.1 398.65V543.72" stroke="#000000" stroke-width="4" stroke-linecap="round" stroke-linejoin="round" opacity="1" fill="none"></path>
		<path d="M431.69 427.1H499.82" stroke="#9867e2" stroke-width="4" stroke-linecap="round" stroke-linejoin="round" opacity="1" fill="none"></path>
		<path d="M431.69 447.14H463.75" stroke="#9867e2" stroke-width="4" stroke-linecap="round" stroke-linejoin="round" opacity="1" fill="none"></path>
		<path d="M431.69 477.2H481.79" stroke="#9867e2" stroke-width="4" stroke-linecap="round" stroke-linejoin="round" opacity="1" fill="none"></path>
	</g>
	<g>
		<path d="M1415.57 248.64L1457.78 670.72C1461.03 703.28 1431.09 729.73 1390.7 729.84L781.22 731.43C740.98 731.53 705.76 705.25 702.51 672.69L660.3 250.61C657.04 218.05 686.99 191.6 727.23 191.5L1336.7 189.91C1376.94 189.8 1412.31 216.08 1415.57 248.64Z" fill="#ffffff" opacity="1" stroke-width="4" stroke="none"></path>
	</g>
	<g>
		<path d="M769.43 281.91H984.56C998.24 281.91 1010.61 293.05 1012.12 306.73 1013.63 320.41 1003.72 331.56 990.04 331.56H774.91C761.23 331.56 748.86 320.41 747.34 306.73 745.83 293.05 755.75 281.91 769.43 281.91Z" fill="#9867e2" opacity="1" stroke-width="4" stroke="none"></path>
		<path d="M780.76 384.51H906.53C920.21 384.51 932.58 395.65 934.09 409.33 935.6 423.01 925.69 434.16 912.01 434.16H786.24C772.56 434.16 760.19 423.01 758.68 409.33 757.17 395.65 767.08 384.51 780.76 384.51Z" fill="#b9b5c0" opacity="1" stroke-width="4" stroke="none"></path>
		<path d="M989.27 384.51H1028.98C1042.66 384.51 1055.04 395.65 1056.55 409.33 1058.06 423.01 1048.15 434.16 1034.47 434.16H994.75C981.07 434.16 968.7 423.01 967.19 409.33 965.68 395.65 975.59 384.51 989.27 384.51Z" fill="#ff6eab" opacity="1" stroke-width="4" stroke="none"></path>
		<path d="M792.09 487.11H822.98C836.66 487.11 849.03 498.25 850.54 511.93 852.05 525.61 842.14 536.76 828.46 536.76H797.57C783.89 536.76 771.52 525.61 770.01 511.93 768.5 498.25 778.41 487.11 792.09 487.11Z" fill="#b9b5c0" opacity="1" stroke-width="4" stroke="none"></path>
		<path d="M905.72 487.11H1091.07C1104.75 487.11 1117.12 498.25 1118.63 511.93 1120.14 525.61 1110.23 536.76 1096.55 536.76H911.21C897.53 536.76 885.15 525.61 883.64 511.93 882.13 498.25 892.04 487.11 905.72 487.11Z" fill="#ff6eab" opacity="1" stroke-width="4" stroke="none"></path>
		<path d="M1173.81 487.11H1332.67C1346.35 487.11 1358.73 498.25 1360.24 511.93 1361.75 525.61 1351.84 536.76 1338.16 536.76H1179.29C1165.61 536.76 1153.24 525.61 1151.73 511.93 1150.22 498.25 1160.13 487.11 1173.81 487.11Z" fill="#d8d6dc" opacity="1" stroke-width="4" stroke="none"></path>
		<path d="M803.42 589.71H902.71C916.39 589.71 928.77 600.85 930.28 614.53 931.79 628.21 921.87 639.36 908.19 639.36H808.9C795.22 639.36 782.85 628.21 781.34 614.53 779.83 600.85 789.74 589.71 803.42 589.71Z" fill="#777576" opacity="1" stroke-width="4" stroke="none"></path>
		<path d="M985.45 589.71H1007.52C1021.2 589.71 1033.57 600.85 1035.08 614.53 1036.59 628.21 1026.68 639.36 1013 639.36H990.94C977.26 639.36 964.88 628.21 963.37 614.53 961.86 600.85 971.77 589.71 985.45 589.71Z" fill="#b9b5c0" opacity="1" stroke-width="4" stroke="none"></path>
		<path d="M1090.26 589.71H1221.55C1235.23 589.71 1247.6 600.85 1249.11 614.53 1250.62 628.21 1240.71 639.36 1227.03 639.36H1095.74C1082.06 639.36 1069.69 628.21 1068.18 614.53 1066.67 600.85 1076.58 589.71 1090.26 589.71Z" fill="#9867e2" opacity="1" stroke-width="4" stroke="none"></path>
	</g>
	<g>
		<path d="M1047.47 478.89L1047.91 472.79C1028.64 452.89 1015.55 440.87 1009 436.98 989.82 425.57 964.08 417.08 953.82 417.08 950.82 417.08 949.14 417.79 948.96 419.29 948.17 425.57 968.77 435.21 971.78 436.53 965.76 439.72 967.18 447.15 967.44 448.21 960.81 454.13 964.52 460.06 965.14 460.94 964.35 461.82 959.31 468.1 966.2 475 970.45 479.25 974.52 480.13 977.08 480.13 978.67 480.13 979.73 479.78 980.09 479.69 986.81 491.01 999.37 494.54 1000.51 494.81 1000.78 495.43 1002.64 499.67 1005.64 505.77L1011.75 507.19 1047.47 478.89Z" fill="#e8b491" opacity="1" stroke-width="4" stroke="none"></path>
		<path d="M1220.17 442.46V442.28C1222.83 430.7 1226.8 412.57 1230.7 392.23 1233.97 374.81 1231.76 360.49 1224.15 350.76 1217.34 342 1206.55 337.14 1192.14 336.17 1190.73 336.08 1189.4 336.08 1188.07 336.08 1160.04 336.08 1149.96 355.09 1144.21 371.72 1143.33 374.37 1142.36 377.02 1141.56 379.67 1140.5 379.76 1133.6 380.47 1132.72 383.92 1131.83 387.28 1136.43 392.14 1137.14 392.85 1133.87 403.73 1132.89 410.09 1132.63 413.63 1132.45 416.28 1132.54 422.92 1137.4 428.22 1141.74 432.91 1148.63 435.21 1157.92 435.21 1160.48 435.21 1163.22 435.03 1166.05 434.68L1164.64 442.9 1220.17 442.46Z" fill="#e8b491" opacity="1" stroke-width="4" stroke="none"></path>
		<path d="M1177.37 431.85C1177.37 431.85 1171.36 433.79 1167.47 434.41L1166.05 434.68 1164.73 442.55 1169.06 447.85 1177.37 431.85Z" fill="#1f1a17" opacity="0.2" stroke-width="4" stroke="none"></path>
		<path d="M1254.84 618.43C1274.73 616.31 1288.62 603.49 1291.89 583.95 1294.89 566.17 1284.2 516.3 1263.77 486.32 1244.23 457.67 1220.26 452.27 1217.87 451.83 1218.05 451.04 1218.93 447.59 1220.17 442.28L1220.26 442.1 1164.82 441.93 1163.49 449.27C1151.37 449.89 1139.61 452.45 1128.29 456.87 1110.87 463.77 1080.37 501.97 1078.07 504.8 1076.56 503.12 1062.95 488.18 1047.91 472.7L1047.82 472.61 1005.56 505.6 1005.64 505.77C1016.17 527.09 1043.58 576.61 1070.2 577.58 1070.82 577.58 1071.52 577.58 1072.14 577.58 1089.47 577.58 1105.21 568.91 1115.38 561.66 1125.29 554.59 1131.92 547.42 1133.25 546.01L1150.31 617.37 1254.84 618.43Z" fill="#ffd94a" opacity="1" stroke-width="4" stroke="none"></path>
		<path d="M1254.84 618.43C1261.29 617.81 1267.57 615.87 1273.14 612.6L1273.41 612.42 1273.14 612.24C1258.37 601.72 1255.54 586.95 1253.24 575.01 1251.65 566.61 1250.33 559.45 1245.11 556.09L1244.93 555.91 1235.29 601.1 1254.84 618.43Z" fill="#5d5d5d" opacity="0.2" stroke-width="4" stroke="none"></path>
		<path d="M1143.5 534.78L1133.25 546.01 1150.31 617.55 1177.28 618.43 1143.5 534.78Z" fill="#5d5d5d" opacity="0.2" stroke-width="4" stroke="none"></path>
		<path d="M1299.23 477.65C1301.7 444.4 1284.02 432.38 1266.95 420.62 1253.78 411.6 1241.31 403.11 1238.21 385.6 1231.85 350.05 1221.06 338.29 1192.05 335.02 1190.11 334.84 1188.16 334.66 1186.22 334.66 1163.93 334.66 1153.67 349.52 1149.61 358.54 1149.61 358.54 1151.2 369.15 1166.94 369.15 1168.09 369.15 1169.33 369.06 1169.18 369.21 1168.09 376.76 1169.66 384.94 1174.19 391.88L1174.24 391.97 1174.46 391.89C1174.45 391.88 1183.83 388.43 1192.23 388.43 1199.21 388.43 1203.55 390.73 1205.14 395.33 1209.74 409.03 1188.6 423.27 1188.43 423.45H1188.34V423.53C1188.25 423.8 1181.35 453.07 1191.88 477.56L1191.96 477.65H1299.23V477.65Z" fill="#7a5400" opacity="1" stroke-width="4" stroke="none"></path>
		<path d="M1247.32 357.57C1226.95 357.57 1210.45 341.06 1210.45 320.69 1210.45 300.33 1226.95 283.82 1247.32 283.82 1267.69 283.82 1284.2 300.33 1284.2 320.69 1284.2 341.06 1267.69 357.57 1247.32 357.57Z" fill="#7a5400" opacity="1" stroke-width="4" stroke="none"></path>
		<path d="M1190.28 432.73C1184.82 432.73 1180.38 428.3 1180.38 422.83 1180.38 417.35 1184.82 412.92 1190.28 412.92 1195.76 412.92 1200.19 417.35 1200.19 422.83 1200.19 428.3 1195.76 432.73 1190.28 432.73Z" fill="#ffffff" opacity="1" stroke-width="4" stroke="none"></path>
		<path d="M1146.25 600.57V600.39H1165.26L1235.38 600.39H1235.47C1281.45 636.12 1291.27 668.84 1301.7 703.5 1307.63 723.22 1313.73 743.56 1326.64 765.84 1333.1 777.07 1340.26 785.39 1348.57 795.11 1362.28 811.12 1379.34 831.1 1403.57 874.61 1404.19 875.76 1404.81 876.91 1405.43 878.06L1405.25 887.61 1335.93 918.65 1328.23 914.93C1319.21 900.79 1307.28 885.93 1295.69 871.52 1288.44 862.5 1280.92 853.12 1274.11 843.93L1273.76 843.4C1258.99 823.41 1246.26 806.17 1230.16 772.65 1229.81 777.34 1229.55 782.2 1229.46 787.15 1229.02 811.65 1231.93 825.62 1235.56 843.4 1239.18 861.26 1243.78 883.45 1246.26 924.22V924.93L1239.98 934.3 1170.65 933.33 1163.67 925.19C1161.19 904.85 1157.03 881.86 1152.97 859.58 1150.31 844.63 1147.75 830.4 1145.89 818.19 1138.2 766.46 1130.77 717.65 1146.25 600.57Z" fill="#61ccff" opacity="1" stroke-width="4" stroke="none"></path>
		<path d="M1255.1 817.22C1255.01 817.04 1250.59 799.09 1249.71 766.82 1249.44 757.27 1249.44 748.69 1249.44 741.17 1249.44 715.79 1251.48 702.79 1241.93 693.95L1229.9 772.21C1242.46 797.94 1249.44 808.47 1249.44 808.47L1255.1 817.22Z" fill="#343434" opacity="0.2" stroke-width="4" stroke="none"></path>
		<path d="M1242.55 683.96C1241.04 711.81 1232.2 739.85 1230.16 772.65" stroke="#343434" stroke-width="4" stroke-linecap="round" stroke-linejoin="round" opacity="1" fill="none"></path>
		<path d="M1240.86 1019.63L1243.43 1015.3C1245.82 993.55 1248.29 960.21 1246.26 925.1V924.93H1163.58L1163.67 925.55C1167.03 953.22 1166.41 969.94 1161.81 977.37 1154.03 989.83 1145.45 996.91 1137.93 1003.1 1132.89 1007.17 1128.56 1010.7 1125.29 1015.21L1125.91 1020.96 1240.86 1019.63Z" fill="#ffd94a" opacity="1" stroke-width="4" stroke="none"></path>
		<path d="M1240.86 1034.84V1034.67C1240.86 1034.58 1242.1 1027.24 1243.43 1015.3V1015.12H1125.29L1125.2 1015.21C1121.22 1020.61 1119.36 1026.8 1119.36 1034.67V1034.84H1240.86V1034.84Z" fill="#3b3210" opacity="1" stroke-width="4" stroke="none"></path>
		<path d="M1434.79 968.43L1436.12 962.33C1431.08 940.67 1421.7 908.39 1405.43 878.06L1405.34 877.88 1328.06 914.76 1328.14 914.93C1340.97 935.1 1346.01 950.93 1343.97 964.81 1341.94 978.87 1337.43 988.68 1333.45 997.35 1330.62 1003.45 1328.41 1008.93 1327.35 1014.51L1331.95 1018.22 1434.79 968.43Z" fill="#ffd94a" opacity="1" stroke-width="4" stroke="none"></path>
		<path d="M1440.27 982.49C1440.27 982.32 1439.03 974.54 1436.2 962.42L1436.12 962.24 1327.35 1014.42C1326.11 1021.14 1327.17 1027.68 1330.71 1034.84L1330.8 1035.02 1440.27 982.49Z" fill="#3b3210" opacity="1" stroke-width="4" stroke="none"></path>
		<path d="M1142.36 402.58C1143.77 403.55 1148.19 403.73 1150.93 400.63" stroke="#1f1a17" stroke-width="4" stroke-linecap="round" stroke-linejoin="round" opacity="1" fill="none"></path>
		<path d="M1150.93 388.25C1152.44 388.25 1153.59 387.01 1153.59 385.6 1153.59 384.18 1152.35 382.95 1150.93 382.95 1149.43 382.95 1148.28 384.18 1148.28 385.6 1148.28 387.01 1149.52 388.25 1150.93 388.25Z" fill="#171314" opacity="1" stroke-width="4" stroke="none"></path>
		<path d="M1165.61 434.85C1171.54 434.06 1176.22 432.73 1176.22 432.73" stroke="#1f1a17" stroke-width="4" stroke-linecap="round" stroke-linejoin="round" opacity="1" fill="none"></path>
		<path d="M1179.67 408.68L1187.63 405.14" stroke="#1f1a17" stroke-width="4" stroke-linecap="round" stroke-linejoin="round" opacity="1" fill="none"></path>
		<path d="M1247.32 547.51L1235.38 600.57 1146.51 600.57" stroke="#5d5d5d" stroke-width="4" stroke-linecap="round" stroke-linejoin="round" opacity="1" fill="none"></path>
		<path d="M1254.84 578.46L1241.4 574.04" stroke="#5d5d5d" stroke-width="4" stroke-linecap="round" stroke-linejoin="round" opacity="1" fill="none"></path>
		<path d="M1133.34 545.83C1139.88 539.55 1146.07 532.48 1146.07 532.48" stroke="#5d5d5d" stroke-width="4" stroke-linecap="round" stroke-linejoin="round" opacity="1" fill="none"></path>
		<path d="M1078.07 505.15V520.54" stroke="#5d5d5d" stroke-width="4" stroke-linecap="round" stroke-linejoin="round" opacity="1" fill="none"></path>
		<path d="M1047.82 472.88L1005.91 505.69" stroke="#5d5d5d" stroke-width="4" stroke-linecap="round" stroke-linejoin="round" opacity="1" fill="none"></path>
		<path d="M1165.5 965.52L1182.32 967.55" stroke="#3b3210" stroke-width="4" stroke-linecap="round" stroke-linejoin="round" opacity="1" fill="none"></path>
		<path d="M1161.91 977.93L1174.9 987.18" stroke="#3b3210" stroke-width="4" stroke-linecap="round" stroke-linejoin="round" opacity="1" fill="none"></path>
		<path d="M1341.92 942.05L1360.07 937.48" stroke="#3b3210" stroke-width="4" stroke-linecap="round" stroke-linejoin="round" opacity="1" fill="none"></path>
		<path d="M1345.35 959.67L1363.6 957.82" stroke="#3b3210" stroke-width="4" stroke-linecap="round" stroke-linejoin="round" opacity="1" fill="none"></path>
		<path d="M1246.08 925.1H1163.84" stroke="#3b3210" stroke-width="4" stroke-linecap="round" stroke-linejoin="round" opacity="1" fill="none"></path>
		<path d="M1328.41 914.85L1405.25 878.15" stroke="#3b3210" stroke-width="4" stroke-linecap="round" stroke-linejoin="round" opacity="1" fill="none"></path>
		<path d="M972.31 436.53C977.88 436.27 983.36 436.98 988.67 438.74" stroke="#1f1a17" stroke-width="4" stroke-linecap="round" stroke-linejoin="round" opacity="1" fill="none"></path>
		<path d="M967.71 448.21C974.52 446.7 984.24 450.24 984.24 450.24" stroke="#1f1a17" stroke-width="4" stroke-linecap="round" stroke-linejoin="round" opacity="1" fill="none"></path>
		<path d="M965.41 460.94C972.75 459.97 980.71 462.62 980.71 462.62" stroke="#1f1a17" stroke-width="4" stroke-linecap="round" stroke-linejoin="round" opacity="1" fill="none"></path>
	</g>
	<g>
		<path d="M709.1 761H894.4V1032H709.1L684.9 906.6 709.1 761Z" fill="#ffd94a" opacity="1" stroke-width="4" stroke="none"></path>
		<path d="M709.1 761H605V1032H709.1V761Z" fill="#9867e2" opacity="1" stroke-width="4" stroke="none"></path>
		<path d="M688.5 790.3H625.6V817H688.5V790.3Z" fill="#ff6eab" opacity="1" stroke-width="4" stroke="none"></path>
		<path d="M657.6 975.7C660.91 975.7 663.6 973.01 663.6 969.7 663.6 966.39 660.91 963.7 657.6 963.7 654.29 963.7 651.6 966.39 651.6 969.7 651.6 973.01 654.29 975.7 657.6 975.7Z" fill="#211d26" opacity="1" stroke-width="4" stroke="none"></path>
		<path d="M657.6 999.5C660.91 999.5 663.6 996.81 663.6 993.5 663.6 990.19 660.91 987.5 657.6 987.5 654.29 987.5 651.6 990.19 651.6 993.5 651.6 996.81 654.29 999.5 657.6 999.5Z" fill="#211d26" opacity="1" stroke-width="4" stroke="none"></path>
		<path d="M672.8 834.9V849.6" stroke="#000000" stroke-width="4" stroke-linecap="round" stroke-linejoin="round" opacity="1" fill="none"></path>
		<path d="M657 834.9V849.6" stroke="#000000" stroke-width="4" stroke-linecap="round" stroke-linejoin="round" opacity="1" fill="none"></path>
		<path d="M641.3 834.9V849.6" stroke="#000000" stroke-width="4" stroke-linecap="round" stroke-linejoin="round" opacity="1" fill="none"></path>
		<path d="M796 953H863.5" stroke="#000000" stroke-width="4" stroke-linecap="round" stroke-linejoin="round" opacity="1" fill="none"></path>
		<path d="M796 975H863.5" stroke="#000000" stroke-width="4" stroke-linecap="round" stroke-linejoin="round" opacity="1" fill="none"></path>
		<path d="M796 997H863.5" stroke="#000000" stroke-width="4" stroke-linecap="round" stroke-linejoin="round" opacity="1" fill="none"></path>
		<path d="M657.6 946.3C666.27 946.3 673.3 939.27 673.3 930.6 673.3 921.93 666.27 914.9 657.6 914.9 648.93 914.9 641.9 921.93 641.9 930.6 641.9 939.27 648.93 946.3 657.6 946.3Z" fill="#ff6eab" opacity="1" stroke-width="4" stroke="none"></path>
	</g>
	<g>
		<path d="M1449.68 846.68V866.16" stroke="#9060d7" stroke-width="4" stroke-linecap="round" stroke-linejoin="round" opacity="1" fill="none"></path>
		<path d="M1449.68 753.04V772.61" stroke="#9060d7" stroke-width="4" stroke-linecap="round" stroke-linejoin="round" opacity="1" fill="none"></path>
		<path d="M1412.59 809.6H1393.02" stroke="#9060d7" stroke-width="4" stroke-linecap="round" stroke-linejoin="round" opacity="1" fill="none"></path>
		<path d="M1506.14 809.6H1486.66" stroke="#9060d7" stroke-width="4" stroke-linecap="round" stroke-linejoin="round" opacity="1" fill="none"></path>
		<path d="M1475.84 835.77L1489.61 849.64" stroke="#9060d7" stroke-width="4" stroke-linecap="round" stroke-linejoin="round" opacity="1" fill="none"></path>
		<path d="M1409.64 769.56L1423.41 783.43" stroke="#9060d7" stroke-width="4" stroke-linecap="round" stroke-linejoin="round" opacity="1" fill="none"></path>
		<path d="M1423.41 835.77L1409.64 849.64" stroke="#9060d7" stroke-width="4" stroke-linecap="round" stroke-linejoin="round" opacity="1" fill="none"></path>
		<path d="M1489.61 769.56L1475.84 783.43" stroke="#9060d7" stroke-width="4" stroke-linecap="round" stroke-linejoin="round" opacity="1" fill="none"></path>
		<path d="M1438.76 809.6L1448.1 834.88C1448.3 835.27 1448.69 835.57 1449.18 835.57 1463.15 835.18 1475.65 823.76 1475.65 809.6 1475.65 795.53 1463.15 784.02 1449.09 783.63 1448.59 783.63 1448.2 783.93 1448 784.32L1438.76 808.81C1438.66 809.01 1438.66 809.4 1438.76 809.6Z" fill="#9867e2" opacity="1" stroke-width="4" stroke="none"></path>
		<path d="M1423.71 809.6C1423.71 823.76 1434.92 835.18 1448.99 835.57 1449.38 835.57 1449.68 835.27 1449.68 834.88V784.32C1449.68 783.93 1449.38 783.63 1448.99 783.63 1434.92 784.02 1423.71 795.44 1423.71 809.6Z" fill="#ff6eab" opacity="1" stroke-width="4" stroke="none"></path>
	</g>
	<g>
		<path d="M484.42 997.53L430.94 980.73C428.12 967.54 424.61 949.06 421.97 930.68L506.15 931.56C507.29 939.74 509.75 949.59 512.39 957.42L484.42 997.53Z" fill="#f0b58e" opacity="1" stroke-width="4" stroke="none"></path>
		<path d="M506.15 931.55L422.49 933.48C422.32 931.99 422.06 930.49 421.88 929.09 420.3 916.86 419.06 901.64 418.18 890.73H502.45C503.42 904.46 504.3 919.59 506.15 931.55Z" fill="#ffe994" opacity="1" stroke-width="4" stroke="none"></path>
		<path d="M301.37 724.48L341.57 724.48C341.57 724.48 437.98 730.73 472.81 765.56 499.02 791.78 500.08 846.31 502.89 894.08H418.27C415.63 859.51 416.6 834.26 416.6 834.26L353.09 832.85C353.09 832.85 313.95 831.54 301.46 799.52 288.88 767.59 301.37 724.48 301.37 724.48Z" fill="#ffd94a" opacity="1" stroke-width="4" stroke="none"></path>
		<path d="M475.27 967.8C474.48 962.35 478.79 957.24 484.33 957.42H512.22C512.39 957.42 512.48 957.51 512.57 957.68 519.96 981.08 545.47 988.21 560.33 1005.71 562.09 1007.38 564.03 1011.78 565.08 1014.95 565.08 1015.04 565.08 1015.04 565 1015.04H439.03C439.03 1015.04 438.94 1015.04 438.94 1014.95 435.95 1007.38 434.11 994.01 430.94 981.17 430.85 980.91 431.03 980.73 431.29 980.73H477.03C477.12 980.73 477.12 980.64 477.12 980.64L475.27 967.8Z" fill="#cecece" opacity="1" stroke-width="4" stroke="none"></path>
		<path d="M564.12 1012.13C566.14 1017.41 567.11 1022.25 567.02 1028.85 567.02 1028.93 566.93 1029.02 566.84 1029.02H444.4C444.31 1029.02 444.22 1029.02 444.22 1028.93 443.87 1028.05 441.85 1022.51 438.77 1012.31 438.77 1012.22 438.86 1012.05 438.94 1012.05H563.94C563.94 1012.05 564.03 1012.13 564.12 1012.13Z" fill="#4f4f4f" opacity="1" stroke-width="4" stroke="none"></path>
		<path d="M431.64 788.78C478.97 788.78 465.77 857.57 463.05 933.4 461.11 984.24 489.79 977.2 511.25 1005.7 512.75 1007.73 513.98 1009.75 515.03 1011.95 517.14 1017.31 518.02 1023.12 517.32 1028.93H453.19C453.19 1028.93 451 1023.21 447.65 1011.95 445.45 1004.12 442.64 993.74 439.74 980.72 436.92 967.53 433.93 951.78 431.29 933.4 431.12 931.9 430.85 930.41 430.68 929 429.09 916.77 427.86 905.07 426.98 894.17 424.34 859.6 425.31 834.35 425.31 834.35 425.31 834.35 360.83 788.78 431.64 788.78Z" fill="#5d5d5d" opacity="0.2" stroke-width="4" stroke="none"></path>
		<path d="M406.84 990.23L359.07 982.67C357.05 968.59 354.32 946.07 353.18 929.1L442.37 928.04C442.02 936.66 442.02 950.12 442.46 957.42L406.84 990.23Z" fill="#f0b58e" opacity="1" stroke-width="4" stroke="none"></path>
		<path d="M405.87 980.72L403.93 967.79C403.23 962.86 406.57 958.2 411.59 957.5 412.03 957.41 412.47 957.41 412.99 957.41H441.76C442.11 957.41 442.46 957.67 442.46 958.11 442.64 961.37 442.99 964.45 443.43 967.35 446.07 986.09 471.58 991.01 483.63 1005.79 484.95 1007.46 487.76 1010.98 488.47 1013.27 488.64 1013.71 488.29 1014.24 487.76 1014.24H364.88C364.53 1014.24 364.26 1013.97 364.18 1013.62 362.59 1005.7 360.48 993.48 358.81 981.6 358.72 981.16 359.07 980.81 359.51 980.81L405.87 980.72Z" fill="#cecece" opacity="1" stroke-width="4" stroke="none"></path>
		<path d="M442.37 933.49H353.44C353.44 933.49 353.27 931.03 353.18 929.1 352.3 916.34 352.04 900.86 351.95 890.39L445.37 889.6C444.22 903.15 442.81 921.18 442.37 933.49Z" fill="#ffe994" opacity="1" stroke-width="4" stroke="none"></path>
		<path d="M224.58 724.48H321.95C321.95 724.48 398.66 731.61 432.61 765.56 454.6 787.55 449.32 843.06 445.1 894.08H351.95C351.68 855.73 355.11 833.47 355.11 833.47H276.39C276.39 833.47 237.16 831.54 224.58 799.52 212.09 767.59 224.58 724.48 224.58 724.48Z" fill="#ffd94a" opacity="1" stroke-width="4" stroke="none"></path>
		<path d="M355.03 833.57C352.83 833.57 295.48 833.57 313.51 833.57 334.97 828.2 344.3 806.3 360.13 806.21 360.22 806.21 360.22 806.3 360.22 806.3 356.96 822.31 355.29 832.6 355.03 833.57 355.11 833.57 355.11 833.57 355.03 833.57Z" fill="#5d5d5d" opacity="0.2" stroke-width="4" stroke="none"></path>
		<path d="M224.58 724.48H312.1C312.1 724.48 340.95 762.4 327.67 760.99 318.7 760.11 303.22 742.34 296.09 742.34 274.19 740.32 254.22 776.38 219.65 776.56 219.56 776.56 219.48 776.47 219.39 776.38 217.19 749.99 224.58 724.48 224.58 724.48Z" fill="#5d5d5d" opacity="0.2" stroke-width="4" stroke="none"></path>
		<path d="M487.94 1012.05C490.84 1017.41 491.28 1023.39 489.87 1029.02L489.79 1029.11H367.52L367.43 1029.02C367.25 1028.32 365.76 1022.16 363.82 1012.22 363.82 1012.13 363.82 1012.13 363.91 1012.13L487.94 1012.05C487.94 1011.96 487.94 1011.96 487.94 1012.05Z" fill="#4f4f4f" opacity="1" stroke-width="4" stroke="none"></path>
		<path d="M436.48 675.22C451.26 676.63 465.77 677.95 474.66 679.01 497.88 681.65 516.62 685.25 516.62 690.62 516.62 692.29 512.21 694.75 512.57 694.84 531.75 703.37 547.49 715.34 541.07 722.81 541.07 722.81 548.63 732.49 536.14 736.09 536.14 736.09 535.26 745.86 520.05 741.02 520.05 741.02 518.55 746.47 508.44 745.07 495.94 743.31 465.42 730.73 465.42 730.73H437.01L432.79 730.82 424.25 700.47 436.48 675.22Z" fill="#f0b58e" opacity="1" stroke-width="4" stroke="none"></path>
		<path d="M245.69 566.94C245.69 566.85 245.69 566.85 245.69 566.94 246.39 566.76 255.72 564.83 260.2 563.95 260.29 563.95 260.29 563.86 260.29 563.86 260.11 563.16 259.06 557.79 258.62 555.07 255.8 540.64 254.66 523.22 253.25 516.36 251.05 504.4 246.13 480.74 259.59 468.69 273.04 456.72 294.86 453.73 312.1 460.5 328.29 466.84 329.87 475.9 336.64 495.6 336.64 495.6 336.64 495.69 336.73 495.69 337.35 495.78 344.21 496.57 344.82 499.47 345.7 502.55 341.48 508.01 341.04 508.53V508.62C346.32 525.16 346.32 534.22 340.69 541.87 334.8 550.14 319.93 550.93 312.36 547.94 312.28 548.03 312.36 547.94 312.28 548.03L315.09 565.71C315.09 565.71 315.09 565.8 315.18 565.8 315.8 565.89 320.72 566.33 326.97 568.35 327.05 568.35 327.05 568.44 326.97 568.52 318.61 577.41 307.09 590.78 292.04 590.95 278.76 591.04 262.49 579.34 245.69 566.94Z" fill="#f0b58e" opacity="1" stroke-width="4" stroke="none"></path>
		<path d="M191.5 650.42C194.32 617.61 207.34 590.78 221.67 578.2 226.07 574.33 237.51 568.44 245.78 566.85 245.78 566.85 245.86 566.85 245.95 566.85 282.19 593.77 311.4 585.06 326.97 568.35 340.6 572.83 355.73 582.69 366.64 610.22 380.01 644.08 388.1 670.91 388.1 670.91 388.1 670.91 412.47 672.94 436.48 675.22L432.79 730.82H387.93C387.93 730.82 362.06 726.42 344.12 724.57 332.6 723.43 285.71 730.47 284.74 730.64L235.13 730.82C215.52 730.82 200.3 723.69 194.05 707.59 188.69 693.34 190.97 658.86 191.5 650.42Z" fill="#61ccff" opacity="1" stroke-width="4" stroke="none"></path>
		<path d="M299.52 542.76L312.89 557.1C313.16 557.36 313.68 557.19 313.6 556.75L312.28 548.13C312.28 547.95 312.19 547.86 312.01 547.77 307.17 545.93 303.66 543.99 299.96 542.06 299.61 541.88 299.26 542.41 299.52 542.76Z" fill="#251c16" opacity="0.2" stroke-width="4" stroke="none"></path>
		<path d="M257.12 463.94C270.58 451.97 292.4 448.98 309.64 455.75 319.67 459.63 325.03 466.4 329.25 475.37V475.46C328.81 476.07 322.92 483.2 302.51 477.39 302.42 477.39 302.42 477.39 302.42 477.48 307.44 496.31 297.1 507.09 297.06 506.77H296.97C296.9 506.88 278.15 490.15 268.56 500.62 255.63 514.51 277.58 533.43 277.44 533.6V533.69C274.41 547.84 257.3 541.17 256.24 541.08 256.24 541.08 256.16 541.08 256.16 540.99 253.96 529.03 251.49 516.71 250.61 511.79 248.33 499.74 243.67 476.07 257.12 463.94Z" fill="#420f00" opacity="1" stroke-width="4" stroke="none"></path>
		<path d="M326.61 500.97C325.21 500.97 324.06 499.83 324.06 498.42 324.06 497.01 325.21 495.87 326.61 495.87 328.03 495.87 329.17 497.01 329.17 498.42 329.17 499.83 328.03 500.97 326.61 500.97Z" fill="#010005" opacity="1" stroke-width="4" stroke="none"></path>
		<path d="M372.97 704.26C386.08 722.47 403.85 722.73 408.16 730.65 408.16 730.74 408.16 730.83 408.07 730.83H388.01C387.75 730.83 362.06 726.43 344.21 724.58 344.21 724.58 344.21 724.58 344.12 724.58L337.61 716.84C337.61 716.84 337.61 716.84 337.61 716.75L341.74 653.07C341.74 652.98 341.83 652.98 341.83 652.98 353.53 653.15 357.75 683.24 372.97 704.26Z" fill="#000000" opacity="0.2" stroke-width="4" stroke="none"></path>
		<path d="M331.72 686.13C351.42 693.26 368.84 705.22 372.8 710.23 378.43 717.45 367.25 719.65 365.14 719.91 364.97 719.91 364.88 720.09 364.97 720.26 370.24 727.47 375.79 739.7 377.28 744.1 381.77 757.56 375.17 757.65 373.85 757.47 373.76 757.47 373.59 757.56 373.59 757.65 372.71 770.84 363.21 765.3 362.06 764.59 361.98 764.59 361.89 764.59 361.89 764.59 348.52 772.42 334.27 741.37 334.27 741.37 336.03 744.98 338.49 758.35 331.63 758.35 324.5 758.35 316.85 730.64 304.89 730.64H285.01C284.92 730.64 284.74 730.55 284.83 730.38L288.88 675.84C288.88 675.75 288.97 675.66 289.14 675.66 302.51 677.42 322.22 682.61 331.72 686.13Z" fill="#f0b58e" opacity="1" stroke-width="4" stroke="none"></path>
		<path d="M277 674.52C263.81 673.46 263.98 672.41 253.25 671.79 253.17 671.79 253.17 671.71 253.17 671.71L257.04 636.26C257.04 636.17 257.12 636.17 257.12 636.17 270.76 637.14 264.78 662.65 277.09 674.34 277.18 674.43 277.09 674.52 277 674.52Z" fill="#000000" opacity="0.2" stroke-width="4" stroke="none"></path>
		<path d="M397.25 743.14C410.62 748.86 423.29 756.16 432.61 765.57 454.6 787.56 449.32 843.07 445.1 894.09 443.96 907.81 442.9 921 442.37 933.32 442.02 941.94 442.02 950.03 442.46 957.33 442.64 960.85 442.99 964.1 443.43 967.27 446.07 986.01 471.58 990.93 483.63 1005.71 485.12 1007.65 486.88 1009.76 487.94 1011.96" stroke="#5d5d5d" stroke-width="4" stroke-linecap="round" stroke-linejoin="round" opacity="1" fill="none"></path>
		<path d="M327.67 516.37C329.17 519.45 333.65 519.89 335.85 519.01" stroke="#251c16" stroke-width="4" stroke-linecap="round" stroke-linejoin="round" opacity="1" fill="none"></path>
		<path d="M299.96 542.05C299.96 542.05 308.49 546.27 312.19 547.85" stroke="#251c16" stroke-width="4" stroke-linecap="round" stroke-linejoin="round" opacity="1" fill="none"></path>
		<path d="M341.74 652.98L339.46 687.55" stroke="#000000" stroke-width="4" stroke-linecap="round" stroke-linejoin="round" opacity="1" fill="none"></path>
		<path d="M373.68 757.57C363.91 735.22 348.69 716.49 348.69 716.49" stroke="#251c16" stroke-width="4" stroke-linecap="round" stroke-linejoin="round" opacity="1" fill="none"></path>
		<path d="M362.06 764.68C351.33 743.22 337.08 723.6 337.08 723.6" stroke="#251c16" stroke-width="4" stroke-linecap="round" stroke-linejoin="round" opacity="1" fill="none"></path>
		<path d="M334.27 741.38L328.46 730.83" stroke="#251c16" stroke-width="4" stroke-linecap="round" stroke-linejoin="round" opacity="1" fill="none"></path>
		<path d="M355.11 833.48C356.7 826.35 360.13 806.65 360.13 806.65" stroke="#5d5d5d" stroke-width="4" stroke-linecap="round" stroke-linejoin="round" opacity="1" fill="none"></path>
		<path d="M541.07 722.81L502.89 703.02" stroke="#251c16" stroke-width="4" stroke-linecap="round" stroke-linejoin="round" opacity="1" fill="none"></path>
		<path d="M536.23 736.09L487.94 712.87" stroke="#251c16" stroke-width="4" stroke-linecap="round" stroke-linejoin="round" opacity="1" fill="none"></path>
		<path d="M520.05 741.02L486.18 727.21" stroke="#251c16" stroke-width="4" stroke-linecap="round" stroke-linejoin="round" opacity="1" fill="none"></path>
		<path d="M288.88 675.84C279.11 674.43 253.17 671.79 253.17 671.79L257.12 636.17" stroke="#000000" stroke-width="4" stroke-linecap="round" stroke-linejoin="round" opacity="1" fill="none"></path>
	</g>
	<g>
		<path d="M252.65 855.22C258 855.22 262.4 859.55 262.4 864.9L262.33 890.23V995.03C262.33 1000.38 258 1004.71 252.65 1004.71 247.3 1004.71 242.97 1000.38 242.97 995.03V864.9C242.89 859.55 247.22 855.22 252.65 855.22Z" fill="#ffffff" opacity="1" stroke-width="4" stroke="none"></path>
		<path d="M252.65 855.22C247.22 855.22 242.89 859.55 242.97 864.9V899.04L262.33 890.23 262.4 864.9C262.33 859.55 258 855.22 252.65 855.22Z" fill="#2c2c2c" opacity="0.2" stroke-width="4" stroke="none"></path>
		<path d="M320.55 1017.69C319.21 1016.51 253.2 958.84 253.2 958.84H252.02C252.02 958.84 186.01 1016.51 184.67 1017.69 183.02 1018.63 181.21 1023.27 183.81 1026.26 185.85 1028.78 189.47 1029.41 192.23 1027.6 192.38 1027.52 228.5 1002.74 250.13 987.87 251.63 986.85 253.51 986.85 255.01 987.87 276.64 1002.74 312.84 1027.52 312.91 1027.6 315.75 1029.41 319.44 1028.7 321.33 1026.26 324.01 1023.19 322.2 1018.63 320.55 1017.69Z" fill="#9867e2" opacity="1" stroke-width="4" stroke="none"></path>
		<path d="M236.91 955.06H268.3C270.19 955.06 271.69 956.56 271.69 958.44V975.28H233.45V958.44C233.53 956.56 235.03 955.06 236.91 955.06Z" fill="#ff6eab" opacity="1" stroke-width="4" stroke="none"></path>
		<path d="M233.53 849.09H271.77V875.28C271.77 876.62 270.67 877.8 269.25 877.8H235.97C234.63 877.8 233.53 876.7 233.53 875.28V849.09Z" fill="#ff6eab" opacity="1" stroke-width="4" stroke="none"></path>
		<path d="M196.08 833.51H309.14C316.69 833.51 322.75 839.64 322.75 847.12 322.75 854.67 316.61 860.73 309.14 860.73H196.08C188.53 860.73 182.47 854.59 182.47 847.12 182.47 839.64 188.61 833.51 196.08 833.51Z" fill="#9867e2" opacity="1" stroke-width="4" stroke="none"></path>
	</g>
</svg>